{"title":"American Gothic 2016 S01E07 1080p WEB-DL HEVC DD5.1x265","uid":15495313,"size":750272380,"categoryP":"video","categoryS":"hd___tv_shows","magnet":"?xt=urn:btih:c472fbbb6544570a9b36a29b74721d71339cabb1&amp;dn=American+Gothic+2016+S01E07+1080p+WEB-DL+HEVC+DD5.1x265&amp;tr=udp%3A%2F%2Ftracker.leechers-paradise.org%3A6969&amp;tr=udp%3A%2F%2Fzer0day.ch%3A1337&amp;tr=udp%3A%2F%2Fopen.demonii.com%3A1337&amp;tr=udp%3A%2F%2Ftracker.coppersurfer.tk%3A6969&amp;tr=udp%3A%2F%2Fexodus.desync.com%3A6969","seeders":1,"leechers":0,"uploader":"nayhtut","files":1,"time":1470431160,"description":"[Screenshots]\r\n \nhttps://s32.postimg.org/mp2pq1lpx/American_Gothic_2016_S01_E07_The_Gross_Clinic_108.jpg \nhttps://s32.postimg.org/uj3bbftit/American_Gothic_2016_S01_E07_The_Gross_Clinic_108.jpg \nhttps://s32.postimg.org/h3galzl11/American_Gothic_2016_S01_E07_The_Gross_Clinic_108.jpg\r\n\r\n\r\nSource:  American Gothic 2016 S01E07 The Gross Clinic 1080p WEB.DL DD5.1 H.264.R2D2 (1.70 GB)\r\n\r\n \r\n__--__--__--__--__--__--__--__--__--__--__--__--__--\r\n\r\n\r\nComplete name                            : American.Gothic.2016.S01E07.The.Gross.Clinic.1080p.WEB-DL.HEVC.DD5.1.x265.mkv\r\nFormat                                   : Matroska\r\nFormat version                           : Version 4 / Version 2\r\nFile size                                : 716 MiB\r\nDuration                                 : 43mn 2s\r\nOverall bit rate                         : 2 324 Kbps\r\nWriting application                      : Lavf57.25.100\r\nWriting library                          : Lavf57.25.100\r\n\r\nVideo\r\n\r\nID                                       : 1\r\nFormat                                   : V_MPEGH/ISO/HEVC\r\nCodec ID                                 : V_MPEGH/ISO/HEVC\r\nDuration                                 : 43mn 2s\r\nBit rate                                 : 1 894 Kbps\r\nWidth                                    : 1 920 pixels\r\nHeight                                   : 1 080 pixels\r\nDisplay aspect ratio                     : 16:9\r\nFrame rate                               : 25.000 fps\r\nBits/(Pixel*Frame)                       : 0.037\r\nStream size                              : 583 MiB (81%)\r\nWriting library                          : Lavc57.48.101 libx265\r\nLanguage                                 : English\r\nDefault                                  : Yes\r\nForced                                   : No\r\nDURATION                                 : 00:43:02.411000000\r\nNUMBER_OF_FRAMES                         : 61915\r\nNUMBER_OF_BYTES                          : 1704029932\r\n_STATISTICS_WRITING_APP                  : mkvmerge v7.2.0 ('On Every Street') 64bit built on Sep 13 2014 15:52:10\r\n_STATISTICS_WRITING_DATE_UTC             : 2016-08-04 20:55:42\r\n_STATISTICS_TAGS                         : BPS DURATION NUMBER_OF_FRAMES NUMBER_OF_BYTES\r\n\r\nAudio\r\nID                                       : 2\r\nFormat                                   : AC-3\r\nFormat/Info                              : Audio Coding 3\r\nMode extension                           : CM (complete main)\r\nFormat settings, Endianness              : Big\r\nCodec ID                                 : A_AC3\r\nDuration                                 : 43mn 2s\r\nBit rate mode                            : Constant\r\nBit rate                                 : 384 Kbps\r\nChannel(s)                               : 6 channels\r\nChannel positions                        : Front: L C R, Side: L R, LFE\r\nSampling rate                            : 48.0 KHz\r\nBit depth                                : 16 bits\r\nCompression mode                         : Lossy\r\nStream size                              : 118 MiB (17%)\r\nWriting library                          : Lavc57.24.102 ac3\r\nLanguage                                 : English\r\nDefault                                  : Yes\r\nForced                                   : No\r\nDURATION                                 : 00:43:02.431000000\r\nNUMBER_OF_FRAMES                         : 80699\r\nNUMBER_OF_BYTES                          : 123953664\r\n_STATISTICS_WRITING_APP                  : mkvmerge v7.2.0 ('On Every Street') 64bit built on Sep 13 2014 15:52:10\r\n_STATISTICS_WRITING_DATE_UTC             : 2016-08-04 20:55:42\r\n_STATISTICS_TAGS                         : BPS DURATION NUMBER_OF_FRAMES NUMBER_OF_BYTES\r\n\r\nText\r\n\r\nID                                       : 3\r\nFormat                                   : ASS\r\nCodec ID                                 : S_TEXT/ASS\r\nCodec ID/Info                            : Advanced Sub Station Alpha\r\nCompression mode                         : Lossless\r\nWriting library                          : Lavc57.48.101 ssa\r\nLanguage                                 : English\r\nDefault                                  : No\r\nForced                                   : No\r\nDURATION                                 : 00:42:27.595000000\r\nNUMBER_OF_FRAMES                         : 738\r\nNUMBER_OF_BYTES                          : 27757\r\n_STATISTICS_WRITING_APP                  : mkvmerge v7.2.0 ('On Every Street') 64bit built on Sep 13 2014 15:52:10\r\n_STATISTICS_WRITING_DATE_UTC             : 2016-08-04 20:55:42\r\n_STATISTICS_TAGS                         : BPS DURATION NUMBER_OF_FRAMES NUMBER_OF_BYTES\r\n\r\n__--__--__--__--__--__--__--__--__--__--__--__--__--\r\n \r\n\r\nIMDb: http://www.imdb.com/title/tt5257744\r\n\r\n\r\n__--__--__--__--__--__--__--__--__--__--__--__--__--\r\n\r\n\r\nAfter adding torrent with magnet link,\r\n\r\nplease add this  following trackers list to the torrent for better seeds.\r\n\r\n\r\nudp://tracker.coppersurfer.tk:6969/announce\r\n\r\nudp://tracker.opentrackr.org:1337/announce\r\n \nhttp://tracker.baravik.org:6970/announce\r\n \nhttp://tracker2.wasabii.com.tw:6969/announce\r\n\r\nudp://9.rarbg.me:2710/announce\r\n\r\n\r\n__--__--__--__--__--__--__--__--__--__--__--__--__--\r\n\r\n\r\nEnjoy!","torrent":{"xt":"urn:btih:c472fbbb6544570a9b36a29b74721d71339cabb1","amp;dn":"American+Gothic+2016+S01E07+1080p+WEB-DL+HEVC+DD5.1x265","amp;tr":["udp%3A%2F%2Ftracker.leechers-paradise.org%3A6969","udp%3A%2F%2Fzer0day.ch%3A1337","udp%3A%2F%2Fopen.demonii.com%3A1337","udp%3A%2F%2Ftracker.coppersurfer.tk%3A6969","udp%3A%2F%2Fexodus.desync.com%3A6969"],"infoHash":"c472fbbb6544570a9b36a29b74721d71339cabb1","infoHashBuffer":{"type":"Buffer","data":[196,114,251,187,101,68,87,10,155,54,162,155,116,114,29,113,51,156,171,177]},"announce":[],"urlList":[]}}